<svg xmlns="http://www.w3.org/2000/svg" width="1500.0mm" height="1000.0mm" viewBox="0 0 1500.0 1000.0">
  <!-- Plech 1500 x 1000 mm, jednotky = mm, 1:1. Vrstva CUT = pálené kontury. -->
  <g id="SHEET" fill="none" stroke="#0000ff" stroke-width="1">
    <rect x="0" y="0" width="1500.0" height="1000.0"/>
  </g>
  <g id="CUT" fill="none" stroke="#ff0000" stroke-width="1">
    <polygon points="240.00,870.00 245.78,577.55 242.73,570.47 235.59,555.39 231.99,548.33 224.90,535.49 217.77,524.02 210.79,514.20 207.23,509.72 203.75,505.70 197.00,498.90 190.13,493.38 183.76,489.54 177.42,486.96 174.02,486.11 167.11,485.42 165.73,485.01 164.52,484.25 163.53,483.20 162.79,481.75 162.52,480.34 162.61,478.91 163.33,477.10 164.24,475.99 165.41,475.16 167.66,474.52 172.41,474.74 176.11,475.30 180.18,476.30 184.74,477.89 188.76,479.73 192.39,481.74 196.71,484.56 204.18,490.57 208.23,494.43 212.05,498.47 219.44,507.39 223.29,512.63 230.63,523.71 234.41,529.97 241.27,542.26 242.43,543.12 243.57,543.35 244.71,543.13 245.88,542.29 246.34,541.55 246.59,540.41 247.43,493.80 244.02,481.83 239.08,466.61 234.21,454.03 229.41,444.01 226.21,438.69 223.32,434.82 221.73,433.11 219.31,431.08 217.81,430.21 212.85,428.95 211.63,427.98 210.89,426.83 210.51,424.72 211.05,422.85 211.74,421.91 212.65,421.17 214.69,420.52 217.82,420.79 221.78,422.12 224.40,423.65 228.02,426.66 230.20,429.02 233.69,433.67 235.58,436.67 238.98,442.91 242.50,450.51 247.59,463.67 252.63,479.22 256.68,493.34 257.42,494.28 258.48,494.86 262.50,495.00 262.93,515.97 263.62,517.56 265.07,518.50 266.79,518.49 268.23,517.53 273.86,509.50 281.70,499.34 285.81,494.50 293.69,486.09 297.89,482.10 305.80,475.47 314.25,469.68 322.29,465.39 326.82,463.50 334.93,461.02 339.65,460.12 347.74,459.51 349.82,459.81 351.10,460.46 352.29,461.57 353.03,462.80 353.49,464.69 353.33,466.31 352.81,467.65 351.58,469.17 350.38,469.95 348.83,470.43 344.43,470.65 337.49,471.72 330.68,473.80 327.12,475.28 319.93,479.10 316.17,481.54 308.96,487.03 305.26,490.27 297.80,497.65 293.98,501.87 286.50,510.98 282.72,516.02 278.88,521.43 271.31,532.97 263.63,546.05 270.00,870.00 240.00,870.00"/>
    <polygon points="295.00,340.00 294.81,343.92 294.23,347.80 293.28,351.61 291.96,355.31 290.28,358.86 288.26,362.22 285.92,365.38 283.28,368.28 280.38,370.92 277.22,373.26 273.86,375.28 270.31,376.96 266.61,378.28 262.80,379.23 258.92,379.81 255.00,380.00 251.08,379.81 247.20,379.23 243.39,378.28 239.69,376.96 236.14,375.28 232.78,373.26 229.62,370.92 226.72,368.28 224.08,365.38 221.74,362.22 219.72,358.86 218.04,355.31 216.72,351.61 215.77,347.80 215.19,343.92 215.00,340.00 215.19,336.08 215.77,332.20 216.72,328.39 218.04,324.69 219.72,321.14 221.74,317.78 224.08,314.62 226.72,311.72 229.62,309.08 232.78,306.74 236.14,304.72 239.69,303.04 243.39,301.72 247.20,300.77 251.08,300.19 255.00,300.00 258.92,300.19 262.80,300.77 266.61,301.72 270.31,303.04 273.86,304.72 277.22,306.74 280.38,309.08 283.28,311.72 285.92,314.62 288.26,317.78 290.28,321.14 291.96,324.69 293.28,328.39 294.23,332.20 294.81,336.08 295.00,340.00"/>
    <polygon points="197.00,390.00 196.85,393.14 196.39,396.24 195.62,399.29 194.56,402.25 193.22,405.08 191.61,407.78 189.74,410.30 187.63,412.63 185.30,414.74 182.78,416.61 180.08,418.22 177.25,419.56 174.29,420.62 171.24,421.39 168.14,421.85 165.00,422.00 161.86,421.85 158.76,421.39 155.71,420.62 152.75,419.56 149.92,418.22 147.22,416.61 144.70,414.74 142.37,412.63 140.26,410.30 138.39,407.78 136.78,405.08 135.44,402.25 134.38,399.29 133.61,396.24 133.15,393.14 133.00,390.00 133.15,386.86 133.61,383.76 134.38,380.71 135.44,377.75 136.78,374.92 138.39,372.22 140.26,369.70 142.37,367.37 144.70,365.26 147.22,363.39 149.92,361.78 152.75,360.44 155.71,359.38 158.76,358.61 161.86,358.15 165.00,358.00 168.14,358.15 171.24,358.61 174.29,359.38 177.25,360.44 180.08,361.78 182.78,363.39 185.30,365.26 187.63,367.37 189.74,369.70 191.61,372.22 193.22,374.92 194.56,377.75 195.62,380.71 196.39,383.76 196.85,386.86 197.00,390.00"/>
    <polygon points="378.00,385.00 377.84,388.23 377.37,391.44 376.58,394.58 375.49,397.63 374.10,400.56 372.44,403.33 370.51,405.93 368.33,408.33 365.93,410.51 363.33,412.44 360.56,414.10 357.63,415.49 354.58,416.58 351.44,417.37 348.23,417.84 345.00,418.00 341.77,417.84 338.56,417.37 335.42,416.58 332.37,415.49 329.44,414.10 326.67,412.44 324.07,410.51 321.67,408.33 319.49,405.93 317.56,403.33 315.90,400.56 314.51,397.63 313.42,394.58 312.63,391.44 312.16,388.23 312.00,385.00 312.16,381.77 312.63,378.56 313.42,375.42 314.51,372.37 315.90,369.44 317.56,366.67 319.49,364.07 321.67,361.67 324.07,359.49 326.67,357.56 329.44,355.90 332.37,354.51 335.42,353.42 338.56,352.63 341.77,352.16 345.00,352.00 348.23,352.16 351.44,352.63 354.58,353.42 357.63,354.51 360.56,355.90 363.33,357.56 365.93,359.49 368.33,361.67 370.51,364.07 372.44,366.67 374.10,369.44 375.49,372.37 376.58,375.42 377.37,378.56 377.84,381.77 378.00,385.00"/>
    <polygon points="233.00,280.00 232.46,285.46 230.87,290.72 228.28,295.56 224.80,299.80 220.56,303.28 215.72,305.87 210.46,307.46 205.00,308.00 199.54,307.46 194.28,305.87 189.44,303.28 185.20,299.80 181.72,295.56 179.13,290.72 177.54,285.46 177.00,280.00 177.54,274.54 179.13,269.28 181.72,264.44 185.20,260.20 189.44,256.72 194.28,254.13 199.54,252.54 205.00,252.00 210.46,252.54 215.72,254.13 220.56,256.72 224.80,260.20 228.28,264.44 230.87,269.28 232.46,274.54 233.00,280.00"/>
    <polygon points="337.00,285.00 336.48,290.27 334.94,295.33 332.45,300.00 329.09,304.09 325.00,307.45 320.33,309.94 315.27,311.48 310.00,312.00 304.73,311.48 299.67,309.94 295.00,307.45 290.91,304.09 287.55,300.00 285.06,295.33 283.52,290.27 283.00,285.00 283.52,279.73 285.06,274.67 287.55,270.00 290.91,265.91 295.00,262.55 299.67,260.06 304.73,258.52 310.00,258.00 315.27,258.52 320.33,260.06 325.00,262.55 329.09,265.91 332.45,270.00 334.94,274.67 336.48,279.73 337.00,285.00"/>
    <polygon points="144.00,455.00 143.54,459.68 142.17,464.18 139.96,468.33 136.97,471.97 133.33,474.96 129.18,477.17 124.68,478.54 120.00,479.00 115.32,478.54 110.82,477.17 106.67,474.96 103.03,471.97 100.04,468.33 97.83,464.18 96.46,459.68 96.00,455.00 96.46,450.32 97.83,445.82 100.04,441.67 103.03,438.03 106.67,435.04 110.82,432.83 115.32,431.46 120.00,431.00 124.68,431.46 129.18,432.83 133.33,435.04 136.97,438.03 139.96,441.67 142.17,445.82 143.54,450.32 144.00,455.00"/>
    <polygon points="414.00,445.00 413.54,449.68 412.17,454.18 409.96,458.33 406.97,461.97 403.33,464.96 399.18,467.17 394.68,468.54 390.00,469.00 385.32,468.54 380.82,467.17 376.67,464.96 373.03,461.97 370.04,458.33 367.83,454.18 366.46,449.68 366.00,445.00 366.46,440.32 367.83,435.82 370.04,431.67 373.03,428.03 376.67,425.04 380.82,422.83 385.32,421.46 390.00,421.00 394.68,421.46 399.18,422.83 403.33,425.04 406.97,428.03 409.96,431.67 412.17,435.82 413.54,440.32 414.00,445.00"/>
    <polygon points="277.00,225.00 276.58,229.29 275.33,233.42 273.29,237.22 270.56,240.56 267.22,243.29 263.42,245.33 259.29,246.58 255.00,247.00 250.71,246.58 246.58,245.33 242.78,243.29 239.44,240.56 236.71,237.22 234.67,233.42 233.42,229.29 233.00,225.00 233.42,220.71 234.67,216.58 236.71,212.78 239.44,209.44 242.78,206.71 246.58,204.67 250.71,203.42 255.00,203.00 259.29,203.42 263.42,204.67 267.22,206.71 270.56,209.44 273.29,212.78 275.33,216.58 276.58,220.71 277.00,225.00"/>
    <polygon points="114.61,324.78 118.21,314.16 119.95,309.89 121.89,305.91 124.08,302.29 126.56,299.07 129.35,296.30 131.40,294.71 133.59,293.34 137.14,291.66 141.01,290.43 145.17,289.61 149.58,289.15 154.18,288.97 165.39,289.22 161.79,299.84 160.05,304.11 158.11,308.09 155.92,311.71 153.44,314.93 150.65,317.70 148.60,319.29 146.41,320.66 142.86,322.34 138.99,323.57 134.83,324.39 130.42,324.85 125.82,325.03 114.61,324.78"/>
    <polygon points="400.39,329.78 389.18,330.03 384.58,329.85 380.17,329.39 376.01,328.57 372.14,327.34 368.59,325.66 366.40,324.29 364.35,322.70 361.56,319.93 359.08,316.71 356.89,313.09 354.95,309.11 353.21,304.84 349.61,294.22 360.82,293.97 365.42,294.15 369.83,294.61 373.99,295.43 377.86,296.66 381.41,298.34 383.60,299.71 385.65,301.30 388.44,304.07 390.92,307.29 393.11,310.91 395.05,314.89 396.79,319.16 400.39,329.78"/>
    <polygon points="99.78,407.08 92.72,400.18 87.56,394.11 85.50,390.98 83.87,387.78 82.70,384.49 82.20,382.26 81.91,379.98 81.88,376.50 82.32,372.93 83.19,369.28 85.96,361.82 90.22,352.92 97.28,359.82 102.44,365.89 104.50,369.02 106.13,372.22 107.30,375.51 107.80,377.74 108.09,380.02 108.12,383.50 107.68,387.07 106.81,390.72 104.04,398.18 99.78,407.08"/>
    <polygon points="410.22,402.08 405.96,393.18 403.19,385.72 402.32,382.07 401.88,378.50 401.91,375.02 402.20,372.74 402.70,370.51 403.87,367.22 405.50,364.02 407.56,360.89 412.72,354.82 419.78,347.92 424.04,356.82 426.81,364.28 427.68,367.93 428.12,371.50 428.09,374.98 427.80,377.26 427.30,379.49 426.13,382.78 424.50,385.98 422.44,389.11 417.28,395.18 410.22,402.08"/>
    <polygon points="63.66,532.48 63.50,523.46 64.04,516.21 64.71,512.87 65.70,509.75 67.06,506.88 68.17,505.12 69.45,503.47 71.68,501.22 74.27,499.21 77.18,497.44 83.81,494.45 92.34,491.52 92.50,500.54 91.96,507.79 91.29,511.13 90.30,514.25 88.94,517.12 87.83,518.88 86.55,520.53 84.32,522.78 81.73,524.79 78.82,526.56 72.19,529.55 63.66,532.48"/>
    <polygon points="315.50,453.65 307.26,449.99 300.92,446.43 298.17,444.41 295.76,442.19 293.74,439.75 292.61,438.00 291.65,436.14 290.56,433.17 289.83,429.98 289.46,426.59 289.55,419.32 290.50,410.35 298.74,414.01 305.08,417.57 307.83,419.59 310.24,421.81 312.26,424.25 313.39,426.00 314.35,427.86 315.44,430.83 316.17,434.02 316.54,437.41 316.45,444.68 315.50,453.65"/>
    <polygon points="1247.96,584.66 1255.66,598.79 1256.62,599.47 1258.35,599.68 1259.91,598.89 1260.45,598.20 1260.82,597.08 1261.50,560.00 1274.50,560.00 1274.85,572.02 1275.42,573.04 1276.34,573.77 1277.76,574.10 1278.90,573.84 1280.06,572.95 1285.52,564.72 1291.77,556.27 1298.17,548.70 1304.78,542.00 1311.11,536.66 1314.40,534.28 1318.03,531.99 1324.45,528.73 1327.92,527.40 1331.69,526.29 1338.26,525.17 1342.34,525.02 1344.40,525.62 1345.89,526.87 1346.79,528.60 1346.97,530.54 1346.38,532.40 1344.76,534.16 1342.76,534.94 1339.21,535.13 1333.86,536.06 1328.63,537.83 1325.67,539.20 1320.06,542.53 1314.45,546.80 1311.44,549.47 1305.65,555.33 1302.62,558.79 1296.71,566.27 1290.66,574.97 1281.62,589.85 1275.32,601.87 1280.00,865.00 1256.00,865.00 1260.04,633.46 1251.30,613.09 1245.28,600.69 1242.30,595.02 1236.39,584.77 1233.38,580.04 1227.57,571.85 1224.58,568.12 1218.94,562.00 1215.99,559.28 1210.43,555.08 1207.71,553.47 1202.72,551.30 1197.66,550.17 1193.98,549.89 1191.82,548.86 1190.59,547.35 1190.03,545.48 1190.22,543.54 1191.27,541.68 1193.25,540.32 1195.22,540.01 1198.88,540.24 1202.35,540.83 1205.47,541.67 1209.33,543.13 1212.80,544.85 1219.15,548.98 1222.70,551.86 1225.98,554.89 1232.20,561.64 1238.66,570.04 1241.81,574.65 1247.96,584.66"/>
    <polygon points="1302.00,430.00 1301.84,433.33 1301.35,436.63 1300.54,439.87 1299.41,443.01 1297.99,446.03 1296.27,448.89 1294.28,451.57 1292.04,454.04 1289.57,456.28 1286.89,458.27 1284.03,459.99 1281.01,461.41 1277.87,462.54 1274.63,463.35 1271.33,463.84 1268.00,464.00 1264.67,463.84 1261.37,463.35 1258.13,462.54 1254.99,461.41 1251.97,459.99 1249.11,458.27 1246.43,456.28 1243.96,454.04 1241.72,451.57 1239.73,448.89 1238.01,446.03 1236.59,443.01 1235.46,439.87 1234.65,436.63 1234.16,433.33 1234.00,430.00 1234.16,426.67 1234.65,423.37 1235.46,420.13 1236.59,416.99 1238.01,413.97 1239.73,411.11 1241.72,408.43 1243.96,405.96 1246.43,403.72 1249.11,401.73 1251.97,400.01 1254.99,398.59 1258.13,397.46 1261.37,396.65 1264.67,396.16 1268.00,396.00 1271.33,396.16 1274.63,396.65 1277.87,397.46 1281.01,398.59 1284.03,400.01 1286.89,401.73 1289.57,403.72 1292.04,405.96 1294.28,408.43 1296.27,411.11 1297.99,413.97 1299.41,416.99 1300.54,420.13 1301.35,423.37 1301.84,426.67 1302.00,430.00"/>
    <polygon points="1219.00,475.00 1218.48,480.27 1216.94,485.33 1214.45,490.00 1211.09,494.09 1207.00,497.45 1202.33,499.94 1197.27,501.48 1192.00,502.00 1186.73,501.48 1181.67,499.94 1177.00,497.45 1172.91,494.09 1169.55,490.00 1167.06,485.33 1165.52,480.27 1165.00,475.00 1165.52,469.73 1167.06,464.67 1169.55,460.00 1172.91,455.91 1177.00,452.55 1181.67,450.06 1186.73,448.52 1192.00,448.00 1197.27,448.52 1202.33,450.06 1207.00,452.55 1211.09,455.91 1214.45,460.00 1216.94,464.67 1218.48,469.73 1219.00,475.00"/>
    <polygon points="1372.00,472.00 1371.48,477.27 1369.94,482.33 1367.45,487.00 1364.09,491.09 1360.00,494.45 1355.33,496.94 1350.27,498.48 1345.00,499.00 1339.73,498.48 1334.67,496.94 1330.00,494.45 1325.91,491.09 1322.55,487.00 1320.06,482.33 1318.52,477.27 1318.00,472.00 1318.52,466.73 1320.06,461.67 1322.55,457.00 1325.91,452.91 1330.00,449.55 1334.67,447.06 1339.73,445.52 1345.00,445.00 1350.27,445.52 1355.33,447.06 1360.00,449.55 1364.09,452.91 1367.45,457.00 1369.94,461.67 1371.48,466.73 1372.00,472.00"/>
    <polygon points="1249.00,360.00 1248.54,364.68 1247.17,369.18 1244.96,373.33 1241.97,376.97 1238.33,379.96 1234.18,382.17 1229.68,383.54 1225.00,384.00 1220.32,383.54 1215.82,382.17 1211.67,379.96 1208.03,376.97 1205.04,373.33 1202.83,369.18 1201.46,364.68 1201.00,360.00 1201.46,355.32 1202.83,350.82 1205.04,346.67 1208.03,343.03 1211.67,340.04 1215.82,337.83 1220.32,336.46 1225.00,336.00 1229.68,336.46 1234.18,337.83 1238.33,340.04 1241.97,343.03 1244.96,346.67 1247.17,350.82 1248.54,355.32 1249.00,360.00"/>
    <polygon points="1338.00,362.00 1337.56,366.49 1336.25,370.80 1334.12,374.78 1331.26,378.26 1327.78,381.12 1323.80,383.25 1319.49,384.56 1315.00,385.00 1310.51,384.56 1306.20,383.25 1302.22,381.12 1298.74,378.26 1295.88,374.78 1293.75,370.80 1292.44,366.49 1292.00,362.00 1292.44,357.51 1293.75,353.20 1295.88,349.22 1298.74,345.74 1302.22,342.88 1306.20,340.75 1310.51,339.44 1315.00,339.00 1319.49,339.44 1323.80,340.75 1327.78,342.88 1331.26,345.74 1334.12,349.22 1336.25,353.20 1337.56,357.51 1338.00,362.00"/>
    <polygon points="1287.00,300.00 1286.63,303.71 1285.55,307.27 1283.80,310.56 1281.44,313.44 1278.56,315.80 1275.27,317.55 1271.71,318.63 1268.00,319.00 1264.29,318.63 1260.73,317.55 1257.44,315.80 1254.56,313.44 1252.20,310.56 1250.45,307.27 1249.37,303.71 1249.00,300.00 1249.37,296.29 1250.45,292.73 1252.20,289.44 1254.56,286.56 1257.44,284.20 1260.73,282.45 1264.29,281.37 1268.00,281.00 1271.71,281.37 1275.27,282.45 1278.56,284.20 1281.44,286.56 1283.80,289.44 1285.55,292.73 1286.63,296.29 1287.00,300.00"/>
    <polygon points="1148.75,438.82 1139.76,434.74 1132.84,430.80 1129.83,428.57 1127.20,426.12 1124.98,423.43 1123.74,421.50 1122.69,419.46 1121.47,416.19 1120.67,412.69 1120.23,408.97 1120.28,401.01 1121.25,391.18 1130.24,395.26 1137.16,399.20 1140.17,401.43 1142.80,403.88 1145.02,406.57 1146.26,408.50 1147.31,410.54 1148.53,413.81 1149.33,417.31 1149.77,421.03 1149.72,428.99 1148.75,438.82"/>
    <polygon points="1386.25,435.82 1385.28,425.99 1385.23,418.03 1385.67,414.31 1386.47,410.81 1387.69,407.54 1388.74,405.50 1389.98,403.57 1392.20,400.88 1394.83,398.43 1397.84,396.20 1404.76,392.26 1413.75,388.18 1414.72,398.01 1414.77,405.97 1414.33,409.69 1413.53,413.19 1412.31,416.46 1411.26,418.50 1410.02,420.43 1407.80,423.12 1405.17,425.57 1402.16,427.80 1395.24,431.74 1386.25,435.82"/>
    <polygon points="1199.15,326.07 1190.15,325.45 1182.98,324.28 1179.70,323.32 1176.69,322.05 1173.95,320.45 1172.29,319.19 1170.76,317.77 1168.71,315.36 1166.94,312.60 1165.42,309.55 1163.02,302.68 1160.85,293.93 1169.85,294.55 1177.02,295.72 1180.30,296.68 1183.31,297.95 1186.05,299.55 1187.71,300.81 1189.24,302.23 1191.29,304.64 1193.06,307.40 1194.58,310.45 1196.98,317.32 1199.15,326.07"/>
    <polygon points="1338.85,324.07 1341.02,315.32 1343.42,308.45 1344.94,305.40 1346.71,302.64 1348.76,300.23 1350.29,298.81 1351.95,297.55 1354.69,295.95 1357.70,294.68 1360.98,293.72 1368.15,292.55 1377.15,291.93 1374.98,300.68 1372.58,307.55 1371.06,310.60 1369.29,313.36 1367.24,315.77 1365.71,317.19 1364.05,318.45 1361.31,320.05 1358.30,321.32 1355.02,322.28 1347.85,323.45 1338.85,324.07"/>
    <polygon points="597.00,480.00 596.58,484.29 595.33,488.42 593.29,492.22 590.56,495.56 587.22,498.29 583.42,500.33 579.29,501.58 575.00,502.00 570.71,501.58 566.58,500.33 562.78,498.29 559.44,495.56 556.71,492.22 554.67,488.42 553.42,484.29 553.00,480.00 553.42,475.71 554.67,471.58 556.71,467.78 559.44,464.44 562.78,461.71 566.58,459.67 570.71,458.42 575.00,458.00 579.29,458.42 583.42,459.67 587.22,461.71 590.56,464.44 593.29,467.78 595.33,471.58 596.58,475.71 597.00,480.00"/>
    <polygon points="575.00,384.00 577.93,384.60 580.74,386.36 583.33,389.22 585.61,393.08 587.47,397.78 588.86,403.14 589.71,408.95 590.00,415.00 589.71,421.05 588.86,426.86 587.47,432.22 585.61,436.92 583.33,440.78 580.74,443.64 577.93,445.40 575.00,446.00 572.07,445.40 569.26,443.64 566.67,440.78 564.39,436.92 562.53,432.22 561.14,426.86 560.29,421.05 560.00,415.00 560.29,408.95 561.14,403.14 562.53,397.78 564.39,393.08 566.67,389.22 569.26,386.36 572.07,384.60 575.00,384.00"/>
    <polygon points="491.86,432.00 493.84,429.76 496.78,428.21 500.55,427.40 505.03,427.35 510.03,428.09 515.36,429.57 520.83,431.74 526.21,434.51 531.30,437.78 535.91,441.43 539.86,445.31 543.00,449.27 545.20,453.17 546.38,456.85 546.50,460.17 545.56,463.00 543.58,465.24 540.64,466.79 536.86,467.60 532.39,467.65 527.39,466.91 522.05,465.43 516.59,463.26 511.21,460.49 506.11,457.22 501.51,453.57 497.56,449.69 494.42,445.73 492.22,441.83 491.04,438.15 490.91,434.83 491.86,432.00"/>
    <polygon points="491.86,528.00 490.91,525.17 491.04,521.85 492.22,518.17 494.42,514.27 497.56,510.31 501.51,506.43 506.11,502.78 511.21,499.51 516.59,496.74 522.05,494.57 527.39,493.09 532.39,492.35 536.86,492.40 540.64,493.21 543.58,494.76 545.56,497.00 546.50,499.83 546.38,503.15 545.20,506.83 543.00,510.73 539.86,514.69 535.91,518.57 531.30,522.22 526.21,525.49 520.83,528.26 515.36,530.43 510.03,531.91 505.03,532.65 500.55,532.60 496.78,531.79 493.84,530.24 491.86,528.00"/>
    <polygon points="575.00,576.00 572.07,575.40 569.26,573.64 566.67,570.78 564.39,566.92 562.53,562.22 561.14,556.86 560.29,551.05 560.00,545.00 560.29,538.95 561.14,533.14 562.53,527.78 564.39,523.08 566.67,519.22 569.26,516.36 572.07,514.60 575.00,514.00 577.93,514.60 580.74,516.36 583.33,519.22 585.61,523.08 587.47,527.78 588.86,533.14 589.71,538.95 590.00,545.00 589.71,551.05 588.86,556.86 587.47,562.22 585.61,566.92 583.33,570.78 580.74,573.64 577.93,575.40 575.00,576.00"/>
    <polygon points="658.14,528.00 656.16,530.24 653.22,531.79 649.45,532.60 644.97,532.65 639.97,531.91 634.64,530.43 629.17,528.26 623.79,525.49 618.70,522.22 614.09,518.57 610.14,514.69 607.00,510.73 604.80,506.83 603.62,503.15 603.50,499.83 604.44,497.00 606.42,494.76 609.36,493.21 613.14,492.40 617.61,492.35 622.61,493.09 627.95,494.57 633.41,496.74 638.79,499.51 643.89,502.78 648.49,506.43 652.44,510.31 655.58,514.27 657.78,518.17 658.96,521.85 659.09,525.17 658.14,528.00"/>
    <polygon points="658.14,432.00 659.09,434.83 658.96,438.15 657.78,441.83 655.58,445.73 652.44,449.69 648.49,453.57 643.89,457.22 638.79,460.49 633.41,463.26 627.95,465.43 622.61,466.91 617.61,467.65 613.14,467.60 609.36,466.79 606.42,465.24 604.44,463.00 603.50,460.17 603.62,456.85 604.80,453.17 607.00,449.27 610.14,445.31 614.09,441.43 618.70,437.78 623.79,434.51 629.17,431.74 634.64,429.57 639.97,428.09 644.97,427.35 649.45,427.40 653.22,428.21 656.16,429.76 658.14,432.00"/>
    <polygon points="574.47,601.94 569.44,629.19 566.71,647.66 563.54,675.80 562.05,694.86 561.06,714.16 560.56,733.70 560.75,763.45 562.05,793.74 564.50,825.04 564.14,826.76 562.83,828.50 561.27,829.32 559.52,829.47 558.24,829.14 557.12,828.46 556.01,827.09 555.58,825.84 553.76,804.64 552.50,784.00 551.56,753.61 551.56,733.61 552.06,713.84 553.07,694.25 554.58,675.01 556.59,655.94 560.56,627.72 563.82,609.30 567.60,591.06 568.56,589.09 569.56,588.22 570.76,587.67 572.51,587.53 574.18,588.06 575.52,589.20 576.33,590.76 576.40,592.94 574.47,601.94"/>
    <polygon points="533.59,697.75 520.99,699.55 515.48,699.82 511.93,699.74 506.81,699.19 503.54,698.50 498.88,696.97 495.94,695.59 493.12,693.94 489.14,690.95 486.63,688.63 483.08,684.71 479.75,680.32 476.60,675.54 469.66,663.52 485.24,660.86 490.87,660.32 496.31,660.19 501.51,660.56 506.46,661.50 511.12,663.03 514.06,664.41 519.57,667.99 522.13,670.18 525.76,673.93 531.32,681.24 536.97,690.49 492.55,669.78 489.17,677.03 533.59,697.75"/>
    <polygon points="599.56,743.80 604.64,733.54 609.24,726.51 612.35,722.90 614.59,720.78 618.22,718.06 620.82,716.56 623.56,715.31 627.94,713.90 631.03,713.25 635.90,712.68 641.01,712.54 646.32,712.74 659.17,714.00 653.03,727.36 650.49,731.96 647.73,736.18 644.72,739.95 641.41,743.22 637.78,745.94 635.18,747.44 629.55,749.69 626.53,750.45 621.75,751.18 613.24,751.43 603.56,750.74 642.47,728.26 638.47,721.34 599.56,743.80"/>
    <polygon points="705.00,386.20 719.80,346.65 726.32,371.51 727.13,372.83 728.03,373.57 729.11,374.01 730.27,374.12 731.41,373.90 732.44,373.36 733.67,371.87 742.00,349.41 750.51,372.22 751.56,373.36 753.34,374.09 754.89,374.01 756.29,373.35 757.12,372.53 757.80,371.14 764.20,346.65 779.00,386.20 774.56,423.00 742.00,438.63 709.53,423.04 705.00,386.20"/>
    <polygon points="746.48,454.63 751.10,516.40 752.87,547.26 754.27,578.14 755.70,624.50 756.20,655.36 756.34,686.24 756.12,717.16 755.54,748.04 754.59,778.93 752.49,825.23 752.06,826.93 751.02,828.34 749.51,829.24 748.21,829.50 746.48,829.23 744.97,828.33 743.93,826.92 743.50,825.21 745.60,778.59 746.88,732.41 747.28,701.63 747.21,655.46 746.32,609.29 744.63,563.12 742.12,516.95 740.00,486.17 737.50,454.93 737.71,453.63 738.30,452.44 739.20,451.48 740.34,450.82 742.07,450.50 743.78,450.87 745.23,451.87 746.18,453.34 746.48,454.63"/>
    <polygon points="707.54,732.03 694.58,726.70 689.34,723.96 686.09,721.96 681.64,718.67 678.98,716.26 675.47,712.31 673.47,709.44 671.72,706.39 669.60,701.47 668.49,697.97 667.26,692.42 666.47,686.57 666.05,680.45 665.91,665.60 681.72,671.61 687.21,674.18 692.31,677.02 696.93,680.19 701.02,683.74 704.53,687.69 706.53,690.56 708.28,693.61 709.76,696.85 710.99,700.26 712.39,705.69 713.70,715.45 714.10,727.44 683.64,683.94 677.09,688.53 707.54,732.03"/>
    <polygon points="923.00,530.00 922.65,533.51 921.63,536.89 919.97,540.00 917.73,542.73 915.00,544.97 911.89,546.63 908.51,547.65 905.00,548.00 901.49,547.65 898.11,546.63 895.00,544.97 892.27,542.73 890.03,540.00 888.37,536.89 887.35,533.51 887.00,530.00 887.35,526.49 888.37,523.11 890.03,520.00 892.27,517.27 895.00,515.03 898.11,513.37 901.49,512.35 905.00,512.00 908.51,512.35 911.89,513.37 915.00,515.03 917.73,517.27 919.97,520.00 921.63,523.11 922.65,526.49 923.00,530.00"/>
    <polygon points="905.00,449.00 907.54,449.50 909.97,450.98 912.22,453.38 914.19,456.62 915.81,460.56 917.01,465.05 917.75,469.93 918.00,475.00 917.75,480.07 917.01,484.95 915.81,489.44 914.19,493.38 912.22,496.62 909.97,499.02 907.54,500.50 905.00,501.00 902.46,500.50 900.03,499.02 897.78,496.62 895.81,493.38 894.19,489.44 892.99,484.95 892.25,480.07 892.00,475.00 892.25,469.93 892.99,465.05 894.19,460.56 895.81,456.62 897.78,453.38 900.03,450.98 902.46,449.50 905.00,449.00"/>
    <polygon points="827.96,504.97 829.22,502.71 831.38,500.85 834.36,499.45 838.05,498.58 842.29,498.26 846.94,498.51 851.81,499.31 856.71,500.64 861.46,502.45 865.87,504.66 869.77,507.19 873.02,509.94 875.48,512.82 877.07,515.70 877.73,518.47 877.42,521.04 876.16,523.30 874.00,525.16 871.02,526.55 867.34,527.43 863.09,527.75 858.44,527.50 853.58,526.70 848.67,525.37 843.93,523.56 839.52,521.35 835.61,518.82 832.37,516.07 829.90,513.19 828.31,510.31 827.66,507.54 827.96,504.97"/>
    <polygon points="857.39,595.53 855.63,593.64 854.53,591.01 854.12,587.74 854.43,583.97 855.44,579.83 857.11,575.49 859.38,571.11 862.15,566.85 865.34,562.90 868.80,559.39 872.42,556.46 876.04,554.22 879.54,552.76 882.77,552.14 885.61,552.37 887.95,553.46 889.71,555.36 890.82,557.99 891.22,561.25 890.91,565.03 889.91,569.16 888.24,573.51 885.97,577.89 883.19,582.14 880.01,586.09 876.54,589.61 872.93,592.54 869.30,594.77 865.81,596.23 862.58,596.85 859.73,596.62 857.39,595.53"/>
    <polygon points="952.61,595.53 950.27,596.62 947.42,596.85 944.19,596.23 940.70,594.77 937.07,592.54 933.46,589.61 929.99,586.09 926.81,582.14 924.03,577.89 921.76,573.51 920.09,569.16 919.09,565.03 918.78,561.25 919.18,557.99 920.29,555.36 922.05,553.46 924.39,552.37 927.23,552.14 930.46,552.76 933.96,554.22 937.58,556.46 941.20,559.39 944.66,562.90 947.85,566.85 950.62,571.11 952.89,575.49 954.56,579.83 955.57,583.97 955.88,587.74 955.47,591.01 954.37,593.64 952.61,595.53"/>
    <polygon points="982.04,504.97 982.34,507.54 981.69,510.31 980.10,513.19 977.63,516.07 974.39,518.82 970.48,521.35 966.07,523.56 961.33,525.37 956.42,526.70 951.56,527.50 946.91,527.75 942.66,527.43 938.98,526.55 936.00,525.16 933.84,523.30 932.58,521.04 932.27,518.47 932.93,515.70 934.52,512.82 936.98,509.94 940.23,507.19 944.13,504.66 948.54,502.45 953.29,500.64 958.19,499.31 963.06,498.51 967.71,498.26 971.95,498.58 975.64,499.45 978.62,500.85 980.78,502.71 982.04,504.97"/>
    <polygon points="913.82,596.72 917.31,625.39 919.86,654.57 921.03,674.34 921.78,694.30 922.12,724.83 921.83,745.46 920.61,776.83 919.27,798.13 917.51,819.63 916.48,830.43 916.16,831.71 915.49,832.84 914.51,833.73 913.32,834.30 912.01,834.50 910.29,834.16 908.83,833.19 907.85,831.73 907.50,830.01 910.29,797.46 912.13,765.93 913.03,734.97 913.11,714.64 912.78,694.57 911.51,664.93 909.30,635.86 907.31,616.80 903.50,588.21 903.94,586.07 905.33,584.38 906.92,583.63 908.67,583.55 910.32,584.15 911.62,585.33 912.45,587.35 913.82,596.72"/>
    <polygon points="938.67,713.55 942.69,703.73 946.62,696.63 949.35,692.91 951.36,690.69 954.65,687.76 957.04,686.09 959.58,684.64 963.69,682.87 966.61,681.96 971.24,680.94 976.14,680.31 981.25,679.98 993.66,679.93 988.70,693.17 986.58,697.77 984.23,702.03 981.59,705.90 978.64,709.31 975.35,712.24 972.96,713.91 967.72,716.59 964.87,717.61 960.33,718.76 952.18,719.83 943.26,720.11 978.76,695.25 974.17,688.69 938.67,713.55"/>
    <polygon points="1027.00,443.30 1039.40,409.77 1044.36,428.88 1044.92,429.90 1045.74,430.73 1046.78,431.27 1047.92,431.50 1049.08,431.39 1050.16,430.94 1051.07,430.20 1051.72,429.24 1058.00,412.11 1064.46,429.58 1065.51,430.73 1066.92,431.39 1068.85,431.39 1070.26,430.73 1071.08,429.90 1071.76,428.51 1076.60,409.77 1089.00,443.30 1085.28,474.50 1058.00,487.75 1030.81,474.54 1027.00,443.30"/>
    <polygon points="1062.48,505.42 1057.88,560.13 1055.37,600.89 1053.68,641.43 1052.79,681.75 1052.66,708.51 1053.12,748.46 1054.40,788.20 1056.50,828.17 1056.09,829.88 1055.06,831.30 1053.56,832.22 1051.83,832.50 1050.12,832.09 1049.01,831.37 1048.17,830.35 1047.56,828.71 1046.02,801.82 1044.46,762.01 1043.88,735.29 1043.66,708.51 1044.00,668.18 1044.68,641.13 1045.73,614.00 1047.97,573.17 1049.92,545.78 1053.58,504.14 1054.02,502.90 1054.80,501.83 1055.86,501.04 1057.10,500.59 1058.86,500.58 1060.48,501.25 1061.73,502.48 1062.41,504.10 1062.48,505.42"/>
    <polygon points="1085.31,720.81 1086.57,709.43 1088.49,701.26 1090.18,696.80 1091.56,694.04 1094.04,690.25 1095.97,687.95 1098.12,685.84 1101.75,683.01 1104.44,681.34 1108.82,679.14 1113.57,677.26 1118.63,675.63 1131.14,672.43 1129.94,687.08 1129.12,692.27 1127.97,697.18 1126.43,701.76 1124.44,705.96 1121.96,709.75 1120.03,712.05 1115.51,716.09 1112.93,717.84 1108.69,720.16 1100.77,723.31 1091.44,725.96 1120.32,691.54 1114.19,686.40 1085.31,720.81"/>
    <polygon points="452.47,288.42 457.91,279.55 462.82,273.33 466.05,270.20 468.33,268.39 471.97,266.13 474.54,264.93 477.22,263.98 481.46,263.01 484.42,262.65 489.04,262.51 493.86,262.79 498.84,263.41 510.81,265.63 503.92,277.67 501.15,281.78 498.20,285.52 495.05,288.81 491.67,291.61 488.03,293.87 485.46,295.07 479.98,296.72 477.08,297.20 472.53,297.49 464.50,297.04 455.86,295.68 494.02,277.88 490.64,270.63 452.47,288.42"/>
    <polygon points="893.51,312.82 882.91,315.22 875.58,315.86 871.41,315.63 868.73,315.19 864.87,314.10 862.41,313.06 860.03,311.79 856.63,309.45 851.34,304.49 846.43,298.48 839.94,289.06 852.52,285.66 857.09,284.78 861.54,284.26 865.83,284.17 869.94,284.56 873.87,285.48 877.59,286.94 882.26,289.71 886.60,293.38 891.64,299.01 896.25,305.29 859.34,291.86 856.60,299.38 893.51,312.82"/>
    <polygon points="990.36,242.46 996.91,235.29 1002.20,230.88 1005.53,228.81 1007.82,227.71 1011.38,226.48 1013.82,225.95 1016.33,225.64 1020.20,225.61 1026.93,226.56 1033.92,228.52 1043.97,232.24 1036.13,241.59 1033.09,244.71 1029.95,247.49 1026.70,249.86 1023.33,251.77 1019.82,253.17 1016.18,254.05 1011.10,254.43 1005.80,253.96 1000.30,252.76 992.43,250.20 1027.63,240.76 1025.56,233.03 990.36,242.46"/>
    <polygon points="675.52,228.25 666.10,227.17 659.61,225.50 656.11,224.04 653.95,222.85 651.00,220.72 649.23,219.08 647.60,217.25 645.45,214.18 642.53,208.26 640.28,201.54 637.79,191.36 649.69,192.21 653.90,192.83 657.88,193.72 661.59,194.94 664.99,196.53 668.05,198.52 670.77,200.92 673.87,204.75 676.40,209.26 678.44,214.35 680.67,222.12 653.69,199.48 648.54,205.61 675.52,228.25"/>
    <polygon points="539.09,123.35 543.83,116.76 548.01,112.38 550.70,110.29 552.59,109.13 555.55,107.78 557.63,107.15 559.78,106.72 563.14,106.45 569.07,106.92 575.34,108.30 584.43,111.11 578.51,120.18 573.71,125.99 571.11,128.36 568.37,130.32 565.45,131.82 562.37,132.85 558.00,133.51 553.35,133.40 548.45,132.62 541.82,130.88 571.14,120.20 568.40,112.68 539.09,123.35"/>
    <polygon points="957.16,142.42 949.14,143.72 943.10,143.87 939.71,143.45 937.56,142.93 934.51,141.78 932.59,140.77 930.77,139.55 928.20,137.36 924.33,132.84 920.88,127.43 916.44,119.01 927.04,116.78 934.54,116.07 938.05,116.23 941.38,116.79 944.50,117.79 947.41,119.23 950.97,121.86 954.18,125.23 957.09,129.24 960.54,135.16 932.26,121.98 928.88,129.23 957.16,142.42"/>
    <polygon points="780.00,270.00 779.81,271.95 779.24,273.83 778.31,275.56 777.07,277.07 775.56,278.31 773.83,279.24 771.95,279.81 770.00,280.00 768.05,279.81 766.17,279.24 764.44,278.31 762.93,277.07 761.69,275.56 760.76,273.83 760.19,271.95 760.00,270.00 760.19,268.05 760.76,266.17 761.69,264.44 762.93,262.93 764.44,261.69 766.17,260.76 768.05,260.19 770.00,260.00 771.95,260.19 773.83,260.76 775.56,261.69 777.07,262.93 778.31,264.44 779.24,266.17 779.81,268.05 780.00,270.00"/>
    <polygon points="628.00,340.00 627.85,341.56 627.39,343.06 626.65,344.44 625.66,345.66 624.44,346.65 623.06,347.39 621.56,347.85 620.00,348.00 618.44,347.85 616.94,347.39 615.56,346.65 614.34,345.66 613.35,344.44 612.61,343.06 612.15,341.56 612.00,340.00 612.15,338.44 612.61,336.94 613.35,335.56 614.34,334.34 615.56,333.35 616.94,332.61 618.44,332.15 620.00,332.00 621.56,332.15 623.06,332.61 624.44,333.35 625.66,334.34 626.65,335.56 627.39,336.94 627.85,338.44 628.00,340.00"/>
    <polygon points="998.00,360.00 997.85,361.56 997.39,363.06 996.65,364.44 995.66,365.66 994.44,366.65 993.06,367.39 991.56,367.85 990.00,368.00 988.44,367.85 986.94,367.39 985.56,366.65 984.34,365.66 983.35,364.44 982.61,363.06 982.15,361.56 982.00,360.00 982.15,358.44 982.61,356.94 983.35,355.56 984.34,354.34 985.56,353.35 986.94,352.61 988.44,352.15 990.00,352.00 991.56,352.15 993.06,352.61 994.44,353.35 995.66,354.34 996.65,355.56 997.39,356.94 997.85,358.44 998.00,360.00"/>
    <polygon points="848.00,200.00 847.85,201.56 847.39,203.06 846.65,204.44 845.66,205.66 844.44,206.65 843.06,207.39 841.56,207.85 840.00,208.00 838.44,207.85 836.94,207.39 835.56,206.65 834.34,205.66 833.35,204.44 832.61,203.06 832.15,201.56 832.00,200.00 832.15,198.44 832.61,196.94 833.35,195.56 834.34,194.34 835.56,193.35 836.94,192.61 838.44,192.15 840.00,192.00 841.56,192.15 843.06,192.61 844.44,193.35 845.66,194.34 846.65,195.56 847.39,196.94 847.85,198.44 848.00,200.00"/>
    <polygon points="717.00,120.00 716.47,122.68 714.95,124.95 712.68,126.47 710.00,127.00 707.32,126.47 705.05,124.95 703.53,122.68 703.00,120.00 703.53,117.32 705.05,115.05 707.32,113.53 710.00,113.00 712.68,113.53 714.95,115.05 716.47,117.32 717.00,120.00"/>
    <polygon points="426.60,847.14 427.98,817.28 429.51,794.72 429.77,793.66 430.73,792.33 432.19,791.60 433.28,791.51 434.83,792.02 435.67,792.73 436.24,793.67 436.49,795.28 434.84,819.94 433.50,850.13 433.29,851.20 432.75,852.16 431.47,853.18 430.42,853.47 428.80,853.29 427.84,852.75 427.09,851.95 426.63,850.96 426.60,847.14"/>
    <polygon points="410.55,850.60 406.54,829.98 403.14,816.16 400.05,805.72 396.57,795.70 396.63,794.07 397.08,793.07 397.82,792.26 399.30,791.57 400.39,791.52 401.45,791.81 402.74,792.82 403.28,793.77 406.70,803.56 409.89,814.31 413.91,830.94 417.45,849.40 417.46,850.50 417.14,851.55 416.10,852.80 414.60,853.45 413.50,853.46 412.45,853.14 411.20,852.10 410.55,850.60"/>
    <polygon points="442.50,849.95 446.08,830.96 448.90,818.90 451.35,809.90 454.63,799.55 456.72,793.77 457.26,792.82 458.07,792.08 459.07,791.63 460.16,791.50 461.23,791.72 462.18,792.26 462.92,793.07 463.37,794.07 463.43,795.70 459.32,807.73 455.69,820.61 452.40,834.90 449.31,851.13 448.80,852.10 447.55,853.14 446.50,853.46 444.87,853.31 443.49,852.44 442.86,851.55 442.50,849.95"/>
    <polygon points="816.60,852.14 817.98,822.28 819.51,799.72 819.77,798.66 820.73,797.33 822.19,796.60 823.28,796.51 824.83,797.02 825.67,797.73 826.40,799.19 826.49,800.28 824.84,824.94 823.50,855.13 823.29,856.20 822.75,857.16 821.47,858.18 820.42,858.47 818.80,858.29 817.84,857.75 817.09,856.95 816.63,855.96 816.60,852.14"/>
    <polygon points="800.55,855.60 796.54,834.98 793.14,821.16 790.05,810.72 786.57,800.70 786.52,799.61 787.08,798.07 788.27,796.96 789.30,796.57 790.39,796.52 791.93,797.08 792.74,797.82 793.28,798.77 796.70,808.56 799.89,819.31 803.91,835.94 807.45,854.40 807.46,855.50 807.14,856.55 806.10,857.80 805.13,858.31 803.50,858.46 802.45,858.14 801.20,857.10 800.55,855.60"/>
    <polygon points="832.50,854.95 836.08,835.96 838.90,823.90 841.35,814.90 844.63,804.55 846.72,798.77 847.26,797.82 848.07,797.08 849.07,796.63 850.16,796.50 851.23,796.72 852.18,797.26 853.19,798.55 853.48,799.61 853.43,800.70 849.32,812.73 845.69,825.61 842.40,839.90 839.31,856.13 838.80,857.10 837.55,858.14 836.50,858.46 834.87,858.31 833.49,857.44 832.86,856.55 832.50,854.95"/>
    <polygon points="1151.60,847.14 1152.98,817.28 1154.51,794.72 1155.02,793.17 1155.73,792.33 1157.19,791.60 1158.28,791.51 1159.83,792.02 1160.67,792.73 1161.24,793.67 1161.49,795.28 1159.84,819.94 1158.50,850.13 1158.29,851.20 1157.75,852.16 1156.95,852.91 1155.42,853.47 1153.80,853.29 1152.84,852.75 1152.09,851.95 1151.63,850.96 1151.60,847.14"/>
    <polygon points="1135.55,850.60 1131.54,829.98 1128.14,816.16 1125.05,805.72 1121.57,795.70 1121.63,794.07 1122.08,793.07 1122.82,792.26 1124.30,791.57 1125.39,791.52 1126.45,791.81 1127.36,792.42 1128.28,793.77 1131.70,803.56 1134.89,814.31 1138.91,830.94 1142.45,849.40 1142.34,851.04 1141.86,852.02 1141.10,852.80 1139.60,853.45 1138.50,853.46 1136.98,852.86 1136.20,852.10 1135.55,850.60"/>
    <polygon points="1167.50,849.95 1171.08,830.96 1173.90,818.90 1176.35,809.90 1179.63,799.55 1181.72,793.77 1182.26,792.82 1183.07,792.08 1184.07,791.63 1185.16,791.50 1186.23,791.72 1187.18,792.26 1187.92,793.07 1188.48,794.61 1188.43,795.70 1184.32,807.73 1180.69,820.61 1177.40,834.90 1174.31,851.13 1173.80,852.10 1172.55,853.14 1171.50,853.46 1169.87,853.31 1168.90,852.80 1167.86,851.55 1167.50,849.95"/>
    <polygon points="1146.99,907.19 1169.83,907.92 1192.66,907.89 1215.50,907.11 1244.06,905.12 1266.93,902.81 1295.56,899.17 1324.23,894.92 1399.01,883.08 1422.08,879.82 1439.40,877.65 1441.35,877.80 1443.09,878.68 1444.36,880.16 1444.96,882.02 1444.81,883.96 1443.93,885.70 1442.45,886.97 1440.60,887.58 1423.41,889.73 1400.49,892.97 1302.72,908.25 1279.63,911.36 1262.30,913.38 1244.92,915.09 1227.60,916.42 1198.61,917.76 1181.24,918.00 1163.90,917.80 1146.53,917.18 1132.50,916.37 1132.50,906.34 1146.99,907.19"/>
    <polygon points="445.50,907.12 474.05,907.97 496.88,907.80 525.43,906.54 554.00,904.19 576.89,901.63 605.53,897.74 685.99,885.07 714.82,880.80 743.67,877.16 767.50,874.78 767.50,884.82 744.81,887.09 716.19,890.71 687.52,894.95 606.96,907.64 578.13,911.55 555.01,914.14 537.62,915.70 520.30,916.87 491.35,917.91 462.35,917.76 445.02,917.10 432.50,916.37 432.50,906.34 445.50,907.12"/>
    <polygon points="71.11,874.48 94.22,872.94 111.59,872.26 128.97,872.00 146.34,872.18 163.72,872.79 181.12,873.82 198.48,875.23 221.60,877.66 240.13,880.00 261.99,883.10 359.71,898.38 382.62,901.46 407.50,904.25 407.50,914.30 381.39,911.38 358.28,908.27 329.48,903.92 271.99,894.74 243.32,890.52 220.42,887.59 197.54,885.19 180.40,883.79 163.26,882.78 146.14,882.18 129.01,882.00 111.88,882.25 94.76,882.92 77.62,884.00 59.80,885.48 58.52,885.25 57.33,884.71 56.33,883.87 55.58,882.81 55.02,880.94 55.22,879.00 56.16,877.28 57.67,876.05 59.54,875.50 71.11,874.48"/>
    <polygon points="792.50,873.03 818.94,872.10 836.27,872.02 853.65,872.39 871.02,873.17 888.38,874.36 905.73,875.93 940.43,880.04 975.01,885.09 1055.47,897.76 1084.11,901.64 1107.50,904.25 1107.50,914.30 1088.65,912.26 1065.56,909.30 1036.73,905.05 956.28,892.37 927.63,888.47 904.75,885.88 876.18,883.51 847.63,882.22 819.08,882.09 792.50,883.05 792.50,873.03"/>
    <polygon points="864.90,845.03 892.29,846.71 915.10,847.52 942.47,847.72 967.50,847.17 967.50,855.67 937.94,856.25 910.29,855.90 882.67,854.72 850.17,852.37 851.77,843.98 864.90,845.03"/>
    <polygon points="279.54,846.66 314.24,844.37 337.08,842.29 364.51,839.32 397.47,835.33 399.15,843.69 360.90,848.29 333.32,851.20 305.72,853.56 279.71,855.16 279.54,846.66"/>
    <polygon points="992.50,845.94 1024.62,843.47 1046.32,841.33 1049.54,842.29 1053.35,842.43 1055.20,842.14 1057.49,841.42 1060.44,839.79 1121.80,832.28 1123.56,840.63 1075.92,846.54 1048.36,849.67 1020.78,852.35 992.50,854.45 992.50,845.94"/>
    <polygon points="612.50,820.16 644.84,821.69 672.45,823.80 700.04,826.51 734.59,830.51 736.64,834.00 737.89,835.39 739.74,836.91 741.34,837.87 743.55,838.80 746.77,839.44 750.58,839.26 753.72,838.32 757.00,836.36 759.64,833.63 786.74,837.01 788.59,845.79 722.00,837.56 685.42,833.55 648.88,830.48 630.62,829.40 612.50,828.67 612.50,820.16"/>
    <polygon points="464.37,827.20 492.94,824.28 511.33,822.71 545.05,820.65 545.61,826.79 546.11,829.12 525.69,830.22 507.43,831.55 484.59,833.62 462.40,835.97 464.37,827.20"/>
  </g>
</svg>